<?xml version="1.0" encoding="utf-8"?>
<!-- Generator: Adobe Illustrator 15.0.2, SVG Export Plug-In . SVG Version: 6.00 Build 0)  -->
<!DOCTYPE svg PUBLIC "-//W3C//DTD SVG 1.1//EN" "http://www.w3.org/Graphics/SVG/1.1/DTD/svg11.dtd">
<svg version="1.1" id="Layer_1" xmlns="http://www.w3.org/2000/svg" xmlns:xlink="http://www.w3.org/1999/xlink" x="0px" y="0px"
	 width="500px" height="500px" viewBox="0 0 500 500" enable-background="new 0 0 500 500" xml:space="preserve">
<g>
	<defs>
		<rect id="SVGID_1_" width="500" height="500"/>
	</defs>
	<clipPath id="SVGID_2_">
		<use xlink:href="#SVGID_1_"  overflow="visible"/>
	</clipPath>
	<g clip-path="url(#SVGID_2_)">
		<defs>
			<rect id="SVGID_3_" width="500" height="500"/>
		</defs>
		<clipPath id="SVGID_4_">
			<use xlink:href="#SVGID_3_"  overflow="visible"/>
		</clipPath>
		<g opacity="0.3" clip-path="url(#SVGID_4_)">
			<g>
				<defs>
					<rect id="SVGID_5_" width="500" height="500"/>
				</defs>
				<clipPath id="SVGID_6_">
					<use xlink:href="#SVGID_5_"  overflow="visible"/>
				</clipPath>
				<path clip-path="url(#SVGID_6_)" d="M500,250c0,138.071-111.929,250-250,250C111.929,500,0,388.071,0,250
					C0,111.928,111.929,0,250,0C388.071,0,500,111.928,500,250"/>
			</g>
		</g>
		<path clip-path="url(#SVGID_4_)" fill="#FFFFFF" d="M354.784,364.529c-50.288,32.581-102.445,30.827-102.445,30.827
			s-1.45-6.656-0.854-18.137c0.557-11.482,6.82-8.243,11.365-17.313c1.639-3.305,3.056-5.563,5.635-13.29
			c0.104-0.312-3.027-55.295-3.792-78.64c-0.437-12.566-2.783-33.555-5.571-53.961c-1.608-12.096-5.302-21.663-7-33.147
			c-2.442-16.574-5.334-35.272-5.334-35.272c-2.042,5.296-4.958,25.018-7.898,47.324c-1.409,10.696-2.819,21.968-4.165,32.523
			c-2.779,22.324-9.771,82.103-10.804,85.353c-1.615,4.928-1.746-1.304-1.746-1.304s4.125-62.706,5.366-90.205
			c0.609-13.456,1.614-28.223,3.3-42.396c1.242-10.633,2.891-20.955,5.002-30.113c0,0,7.18-21.686,9.471-22.124
			c2.279-0.427,10.573,13.682,13.367,26.238c6.348,28.322,10.084,31.962,14.882,61.718c4.594,28.267,8.794,51.935,9.371,55.8
			c2.051,14.048,1.034,57.832-2.515,75.254c-0.817,4.764-1.089,6.504-4.205,9.678c-7.297,7.35-12.463,16.123-12.463,21.864
			c0,5.755-0.945,5.633,0.437,8.961c0,0,9.567,14.384,64.801-18.518c0,0,17.225-9.025,17.225-28.976V134.938
			c0,0-54.717-18.514-96.878-18.514c-42.138,0-94.952,18.483-94.952,18.483v200.854c0,12.375,1.826,35.561,19.447,43.448
			c0,0-47.016-16.076-47.016-43.708V117.84c0,0,71.781-13.212,122.561-13.212c50.755,0,123.81,13.212,123.81,13.212v217.945
			C373.186,354.547,354.784,364.529,354.784,364.529"/>
	</g>
</g>
</svg>
